# xmcd
#
# Track frame offsets:
#	150
#	11649
#	28879
#	48528
#	76057
#	99241
#	117648
#	137926
#	165365
#	189279
#	211387
#	231965
#	254099
#	274728
#	282575
#
# Disc length: 4044 seconds
#
# Revision: 1
# Processed by: cddbd v1.5.1PL2 Copyright (c) Steve Scherf et al.
# Submitted via: dBpowerAMP V4.0
#
DISCID=d90fca0f
DTITLE=Bruce Springsteen - We Shall Overcome: The Seeger Sessions
DYEAR=2006
DGENRE=Folk-rock
TTITLE0=Old Dan Tucker
TTITLE1=Jesse James
TTITLE2=Mrs. McGarth
TTITLE3=O Mary Don't You Weep
TTITLE4=John Henry
TTITLE5=Erie Canal
TTITLE6=Jacob's Ladder
TTITLE7=My Oklahoma Home
TTITLE8=Eyes On The Prize
TTITLE9=Shenandoah
TTITLE10=Pay Me My Money Down
TTITLE11=Whe Shall Overcome
TTITLE12=Froggle Went A Courtin'
TTITLE13=Bonus Track 1
TTITLE14=Bonus Track 2
EXTD=
EXTT0=
EXTT1=
EXTT2=
EXTT3=
EXTT4=
EXTT5=
EXTT6=
EXTT7=
EXTT8=
EXTT9=
EXTT10=
EXTT11=
EXTT12=
EXTT13=
EXTT14=
PLAYORDER=
